<svg width="20" height="20" viewBox="0 0 20 20" fill="none" xmlns="http://www.w3.org/2000/svg">
<path d="M10.8334 6.66669H9.16669V10.8334H13.3334V9.16669H10.8334V6.66669Z" fill="#F2F2F2"/>
<path d="M16.6658 10C16.6658 7.53919 15.3225 5.39169 13.3333 4.23669V2.50002C13.3333 2.27901 13.2455 2.06704 13.0893 1.91076C12.933 1.75448 12.721 1.66669 12.5 1.66669H7.5C7.27899 1.66669 7.06703 1.75448 6.91075 1.91076C6.75447 2.06704 6.66667 2.27901 6.66667 2.50002V4.23585C4.6775 5.39085 3.33417 7.53919 3.33417 10C3.33517 11.1916 3.6554 12.3611 4.26154 13.387C4.86768 14.4129 5.73761 15.2576 6.78083 15.8334H6.66667V17.5342C6.66667 17.7552 6.75447 17.9672 6.91075 18.1234C7.06703 18.2797 7.27899 18.3675 7.5 18.3675H12.5C12.721 18.3675 12.933 18.2797 13.0893 18.1234C13.2455 17.9672 13.3333 17.7552 13.3333 17.5342V15.8334H13.2175C14.2612 15.258 15.1316 14.4134 15.7381 13.3875C16.3446 12.3616 16.6649 11.1918 16.6658 10ZM9.99917 14.9992C8.67386 14.9976 7.40328 14.4704 6.46622 13.5332C5.52916 12.596 5.00216 11.3253 5.00083 10C5.00216 8.67471 5.52916 7.40405 6.46622 6.46683C7.40328 5.52962 8.67386 5.0024 9.99917 5.00085C12.7575 5.00085 14.9992 7.24335 14.9992 10C14.9978 11.3256 14.4706 12.5965 13.5332 13.5338C12.5958 14.4711 11.3248 14.9981 9.99917 14.9992Z" fill="#F2F2F2"/>
</svg>
